<?xml version="1.0" encoding="UTF-8"?>
<svg xmlns="http://www.w3.org/2000/svg" width="1200" height="630" viewBox="0 0 1200 630" role="img" aria-label="ahorro" data-scene-id="ahorro">
<rect x="0" y="0" width="1200" height="630" fill="#0d9488" /><ellipse cx="592" cy="548" rx="396" ry="30" fill="#11786f" /><g data-object="figure" data-pose="standing-reaching"><circle cx="350" cy="162" r="38" fill="#f2cc73" /><polygon points="316,202 404,202 392,348 328,348" fill="#f2cc73" /><polygon points="400,224 498,194 506,212 408,246" fill="#f2cc73" /><circle cx="502" cy="212" r="12" fill="#f2cc73" /><polygon points="324,224 298,312 320,316 342,244" fill="#f2cc73" /><polygon points="336,348 376,348 386,492 346,492" fill="#26284f" /><polygon points="374,348 414,348 450,492 404,492" fill="#26284f" /><ellipse cx="350" cy="492" rx="26" ry="10" fill="#26284f" /><ellipse cx="442" cy="492" rx="28" ry="10" fill="#26284f" /></g><g data-object="jar"><rect x="688" y="228" width="140" height="26" rx="13" fill="#f2cc73" /><rect x="700" y="250" width="116" height="158" rx="34" fill="#9fd8d3" opacity="0.95" /><ellipse cx="758" cy="250" rx="56" ry="10" fill="#26284f" opacity="0.28" /><circle cx="742" cy="352" r="24" fill="#f4b740" /><circle cx="776" cy="352" r="24" fill="#f4b740" /><circle cx="742" cy="384" r="24" fill="#f4b740" /><circle cx="776" cy="384" r="24" fill="#f4b740" /></g><g data-object="coin"><circle cx="770" cy="240" r="24" fill="#f4b740" /><circle cx="770" cy="240" r="16" fill="none" stroke="#f5f0df" stroke-width="4" /></g>
</svg>
